rotated_Sprint_08100001_forces_filt10Hz.mot
version=1
nRows=33
nColumns=19
inDegrees=yes
endheader
time	R_ground_force_vx	R_ground_force_vy	R_ground_force_vz	R_ground_force_px	R_ground_force_py	R_ground_force_pz	R_ground_torque_x	R_ground_torque_y	R_ground_torque_z	L_ground_force_vx	L_ground_force_vy	L_ground_force_vz	L_ground_force_px	L_ground_force_py	L_ground_force_pz	L_ground_torque_x	L_ground_torque_y	L_ground_torque_z	
4.390500	  0.000000	  0.000000	  0.000000	  0.040675	  0.000000	 -0.501532	  0.000000	  0.000000	  0.000000	  0.000000	  0.000000	  0.000000	  1.160439	  0.000000	 -0.163796	  0.000000	  0.000000	  0.000000
4.391000	  0.000000	  0.000000	  0.000000	  0.042134	  0.000000	 -0.503927	  0.000000	  0.000000	  0.000000	  0.000000	  0.000000	  0.000000	  1.159058	  0.000000	 -0.163361	  0.000000	  0.000000	  0.000000
4.391500	  0.000000	  0.000000	  0.000000	  0.043593	  0.000000	 -0.506323	  0.000000	  0.000000	  0.000000	  0.000000	  0.000000	  0.000000	  1.157677	  0.000000	 -0.162925	  0.000000	  0.000000	  0.000000
4.392000	  0.000000	  0.000000	  0.000000	  0.045052	  0.000000	 -0.508718	  0.000000	  0.000000	  0.000000	  0.000000	  0.000000	  0.000000	  1.156296	  0.000000	 -0.162490	  0.000000	  0.000000	  0.000000
4.392500	  0.000000	  0.000000	  0.000000	  0.046511	  0.000000	 -0.511113	  0.000000	  0.000000	  0.000000	  0.000000	  0.000000	  0.000000	  1.154914	  0.000000	 -0.162055	  0.000000	  0.000000	  0.000000
4.393000	  0.000000	  0.000000	  0.000000	  0.047969	  0.000000	 -0.513508	  0.000000	  0.000000	  0.000000	  0.000000	  0.000000	  0.000000	  1.153533	  0.000000	 -0.161620	  0.000000	  0.000000	  0.000000
4.393500	  0.000000	  0.000000	  0.000000	  0.049428	  0.000000	 -0.515903	  0.000000	  0.000000	  0.000000	  0.000000	  0.000000	  0.000000	  1.152152	  0.000000	 -0.161185	  0.000000	  0.000000	  0.000000
4.394000	  0.000000	  0.000000	  0.000000	  0.050887	  0.000000	 -0.518299	  0.000000	  0.000000	  0.000000	  0.000000	  0.000000	  0.000000	  1.150771	  0.000000	 -0.160749	  0.000000	  0.000000	  0.000000
4.394500	  0.000000	  0.000000	  0.000000	  0.052346	  0.000000	 -0.520694	  0.000000	  0.000000	  0.000000	  0.000000	  0.000000	  0.000000	  1.149390	  0.000000	 -0.160314	  0.000000	  0.000000	  0.000000
4.395000	  0.000000	  0.000000	  0.000000	  0.053805	  0.000000	 -0.523089	  0.000000	  0.000000	  0.000000	  0.000000	  0.000000	  0.000000	  1.148009	  0.000000	 -0.159879	  0.000000	  0.000000	  0.000000
4.395500	  0.000000	  0.000000	  0.000000	  0.055504	  0.000000	 -0.525307	  0.000000	  0.000000	  0.000000	  0.000000	  0.000000	  0.000000	  1.146352	  0.000000	 -0.159387	  0.000000	  0.000000	  0.000000
4.396000	  0.000000	  0.000000	  0.000000	  0.057202	  0.000000	 -0.527524	  0.000000	  0.000000	  0.000000	  0.000000	  0.000000	  0.000000	  1.144696	  0.000000	 -0.158895	  0.000000	  0.000000	  0.000000
4.396500	  0.000000	  0.000000	  0.000000	  0.058900	  0.000000	 -0.529742	  0.000000	  0.000000	  0.000000	  0.000000	  0.000000	  0.000000	  1.143039	  0.000000	 -0.158403	  0.000000	  0.000000	  0.000000
4.397000	  0.000000	  0.000000	  0.000000	  0.060599	  0.000000	 -0.531960	  0.000000	  0.000000	  0.000000	  0.000000	  0.000000	  0.000000	  1.141382	  0.000000	 -0.157911	  0.000000	  0.000000	  0.000000
4.397500	  0.000000	  0.000000	  0.000000	  0.062297	  0.000000	 -0.534177	  0.000000	  0.000000	  0.000000	  0.000000	  0.000000	  0.000000	  1.139725	  0.000000	 -0.157418	  0.000000	  0.000000	  0.000000
4.398000	  0.000000	  0.000000	  0.000000	  0.063996	  0.000000	 -0.536395	  0.000000	  0.000000	  0.000000	  0.000000	  0.000000	  0.000000	  1.138069	  0.000000	 -0.156926	  0.000000	  0.000000	  0.000000
4.398500	  0.000000	  0.000000	  0.000000	  0.065695	  0.000000	 -0.538613	  0.000000	  0.000000	  0.000000	  0.000000	  0.000000	  0.000000	  1.136412	  0.000000	 -0.156434	  0.000000	  0.000000	  0.000000
4.399000	  0.000000	  0.000000	  0.000000	  0.067393	  0.000000	 -0.540831	  0.000000	  0.000000	  0.000000	  0.000000	  0.000000	  0.000000	  1.134755	  0.000000	 -0.155942	  0.000000	  0.000000	  0.000000
4.399500	  0.000000	  0.000000	  0.000000	  0.069091	  0.000000	 -0.543048	  0.000000	  0.000000	  0.000000	  0.000000	  0.000000	  0.000000	  1.133099	  0.000000	 -0.155450	  0.000000	  0.000000	  0.000000
4.400000	  0.000000	  0.000000	  0.000000	  0.070790	  0.000000	 -0.545266	  0.000000	  0.000000	  0.000000	  0.000000	  0.000000	  0.000000	  1.131442	  0.000000	 -0.154958	  0.000000	  0.000000	  0.000000
4.400500	  0.000000	  0.000000	  0.000000	  0.072636	  0.000000	 -0.547315	  0.000000	  0.000000	  0.000000	  0.000000	  0.000000	  0.000000	  1.129505	  0.000000	 -0.154302	  0.000000	  0.000000	  0.000000
4.401000	  0.000000	  0.000000	  0.000000	  0.074481	  0.000000	 -0.549364	  0.000000	  0.000000	  0.000000	  0.000000	  0.000000	  0.000000	  1.127568	  0.000000	 -0.153646	  0.000000	  0.000000	  0.000000
4.401500	  0.000000	  0.000000	  0.000000	  0.076327	  0.000000	 -0.551414	  0.000000	  0.000000	  0.000000	  0.000000	  0.000000	  0.000000	  1.125631	  0.000000	 -0.152989	  0.000000	  0.000000	  0.000000
4.402000	  0.000000	  0.000000	  0.000000	  0.078172	  0.000000	 -0.553463	  0.000000	  0.000000	  0.000000	  0.000000	  0.000000	  0.000000	  1.123694	  0.000000	 -0.152333	  0.000000	  0.000000	  0.000000
4.402500	  0.000000	  0.000000	  0.000000	  0.080018	  0.000000	 -0.555512	  0.000000	  0.000000	  0.000000	  0.000000	  0.000000	  0.000000	  1.121758	  0.000000	 -0.151677	  0.000000	  0.000000	  0.000000
4.403000	  0.000000	  0.000000	  0.000000	  0.081864	  0.000000	 -0.557561	  0.000000	  0.000000	  0.000000	  0.000000	  0.000000	  0.000000	  1.119821	  0.000000	 -0.151021	  0.000000	  0.000000	  0.000000
4.403500	  0.000000	  0.000000	  0.000000	  0.083709	  0.000000	 -0.559610	  0.000000	  0.000000	  0.000000	  0.000000	  0.000000	  0.000000	  1.117884	  0.000000	 -0.150365	  0.000000	  0.000000	  0.000000
4.404000	  0.000000	  0.000000	  0.000000	  0.085555	  0.000000	 -0.561660	  0.000000	  0.000000	  0.000000	  0.000000	  0.000000	  0.000000	  1.115947	  0.000000	 -0.149708	  0.000000	  0.000000	  0.000000
4.404500	  0.000000	  0.000000	  0.000000	  0.087400	  0.000000	 -0.563709	  0.000000	  0.000000	  0.000000	  0.000000	  0.000000	  0.000000	  1.114010	  0.000000	 -0.149052	  0.000000	  0.000000	  0.000000
4.405000	  0.000000	  0.000000	  0.000000	  0.089246	  0.000000	 -0.565758	  0.000000	  0.000000	  0.000000	  0.000000	  0.000000	  0.000000	  1.112073	  0.000000	 -0.148396	  0.000000	  0.000000	  0.000000
4.405500	  0.000000	  0.000000	  0.000000	  0.091233	  0.000000	 -0.567595	  0.000000	  0.000000	  0.000000	  0.000000	  0.000000	  0.000000	  1.109888	  0.000000	 -0.147614	  0.000000	  0.000000	  0.000000
4.406000	  0.000000	  0.000000	  0.000000	  0.093220	  0.000000	 -0.569433	  0.000000	  0.000000	  0.000000	  0.000000	  0.000000	  0.000000	  1.107703	  0.000000	 -0.146832	  0.000000	  0.000000	  0.000000
4.406500	  0.000000	  0.000000	  0.000000	  0.095208	  0.000000	 -0.571270	  0.000000	  0.000000	  0.000000	  0.000000	  0.000000	  0.000000	  1.105518	  0.000000	 -0.146051	  0.000000	  0.000000	  0.000000
